<?xml version="1.0" standalone="no"?>
<!DOCTYPE svg PUBLIC "-//W3C//DTD SVG 20010904//EN"
 "http://www.w3.org/TR/2001/REC-SVG-20010904/DTD/svg10.dtd">
<svg version="1.0" xmlns="http://www.w3.org/2000/svg"
 width="150.000000pt" height="150.000000pt" viewBox="0 0 150.000000 150.000000"
 preserveAspectRatio="xMidYMid meet">

<g transform="translate(0.000000,150.000000) scale(0.100000,-0.100000)"
fill="#000000" stroke="none">
<path d="M234 1227 c-2 -7 -3 -98 -2 -202 l3 -190 35 0 35 0 5 130 5 130 60
-102 c33 -56 68 -116 77 -133 15 -26 23 -30 58 -30 l40 0 0 206 0 205 -37 -3
-38 -3 -5 -128 -5 -129 -75 131 -74 131 -38 0 c-22 0 -41 -5 -44 -13z"/>
<path d="M1109 1138 c-46 -93 -71 -99 -101 -28 -11 28 -24 50 -28 50 -4 0 -20
-19 -35 -42 -79 -122 -146 -140 -157 -43 -6 52 -11 60 -32 52 -19 -8 -62 -92
-70 -138 -18 -98 97 -137 213 -73 36 20 50 23 77 15 65 -18 144 22 180 91 17
33 19 129 2 146 -19 19 -26 15 -49 -30z"/>
<path d="M237 703 c-4 -3 -7 -96 -7 -205 l0 -198 118 0 c98 0 122 3 149 20 60
36 67 145 11 184 l-21 15 22 27 c42 54 17 136 -47 153 -41 12 -215 15 -225 4z
m194 -82 c20 -16 22 -23 14 -47 -10 -27 -15 -29 -67 -32 -54 -3 -58 -2 -64 23
-3 14 -3 36 0 50 6 22 12 25 50 25 28 0 52 -7 67 -19z m10 -151 c14 -8 19 -21
19 -50 0 -46 -14 -53 -96 -48 -46 3 -49 5 -52 32 -2 15 -1 39 2 52 6 21 12 24
57 24 28 0 59 -5 70 -10z"/>
<path d="M624 696 c-3 -8 -4 -25 -2 -38 3 -20 9 -23 54 -26 l51 -3 7 -67 c3
-37 6 -111 6 -164 l0 -98 40 0 40 0 0 165 0 165 56 0 55 0 -3 38 -3 37 -148 3
c-122 2 -148 0 -153 -12z"/>
<path d="M1075 701 c-6 -11 -135 -387 -135 -396 0 -3 18 -5 39 -5 37 0 40 2
54 43 l14 42 69 0 69 0 15 -42 c14 -41 16 -43 56 -43 l43 0 -64 191 c-35 105
-69 197 -76 205 -13 16 -75 19 -84 5z m69 -178 c10 -29 15 -57 11 -63 -8 -12
-72 -13 -79 -1 -8 12 35 134 44 124 4 -4 15 -32 24 -60z"/>
</g>
</svg>
